<mxfile host="app.diagrams.net" modified="2024-01-08T12:53:36.702Z" agent="Mozilla/5.0 (Macintosh; Intel Mac OS X 10_15_7) AppleWebKit/537.36 (KHTML, like Gecko) Chrome/116.0.0.0 Whale/3.22.205.18 Safari/537.36" etag="_h_CyRwMdPhsp6apUM6L" version="22.1.17" type="github">
  <diagram id="6oojn5KAw8aXJEHvEB7P" name="페이지-1">
    <mxGraphModel dx="2748" dy="1397" grid="1" gridSize="10" guides="1" tooltips="1" connect="1" arrows="1" fold="1" page="0" pageScale="1" pageWidth="1169" pageHeight="827" math="0" shadow="0">
      <root>
        <mxCell id="0" />
        <mxCell id="1" parent="0" />
        <mxCell id="rS5YzvvpMupWirfGaCEM-1" value="" style="endArrow=none;html=1;rounded=0;strokeWidth=3;fillColor=#dae8fc;strokeColor=#6c8ebf;" edge="1" parent="1">
          <mxGeometry width="50" height="50" relative="1" as="geometry">
            <mxPoint x="-840" y="-280" as="sourcePoint" />
            <mxPoint x="-420" y="-280" as="targetPoint" />
          </mxGeometry>
        </mxCell>
        <mxCell id="rS5YzvvpMupWirfGaCEM-2" value="" style="endArrow=none;html=1;rounded=0;strokeWidth=3;fillColor=#d5e8d4;strokeColor=#82b366;" edge="1" parent="1">
          <mxGeometry width="50" height="50" relative="1" as="geometry">
            <mxPoint x="-840" y="-40" as="sourcePoint" />
            <mxPoint x="-420" y="-40" as="targetPoint" />
          </mxGeometry>
        </mxCell>
        <mxCell id="rS5YzvvpMupWirfGaCEM-3" value="&lt;span style=&quot;font-size: 15px;&quot;&gt;Consumer&lt;br&gt;Heartbeat Thread&lt;br&gt;&lt;/span&gt;" style="text;html=1;strokeColor=none;fillColor=none;align=center;verticalAlign=middle;whiteSpace=wrap;rounded=0;" vertex="1" parent="1">
          <mxGeometry x="-960" y="-300" width="120" height="30" as="geometry" />
        </mxCell>
        <mxCell id="rS5YzvvpMupWirfGaCEM-4" value="&lt;span style=&quot;font-size: 15px;&quot;&gt;Group Coordinator&lt;br&gt;&lt;/span&gt;" style="text;html=1;strokeColor=none;fillColor=none;align=center;verticalAlign=middle;whiteSpace=wrap;rounded=0;" vertex="1" parent="1">
          <mxGeometry x="-960" y="-60" width="120" height="30" as="geometry" />
        </mxCell>
        <mxCell id="rS5YzvvpMupWirfGaCEM-5" value="" style="endArrow=classic;html=1;rounded=0;" edge="1" parent="1">
          <mxGeometry width="50" height="50" relative="1" as="geometry">
            <mxPoint x="-800" y="-280" as="sourcePoint" />
            <mxPoint x="-720" y="-40" as="targetPoint" />
          </mxGeometry>
        </mxCell>
        <mxCell id="rS5YzvvpMupWirfGaCEM-6" value="" style="endArrow=classic;html=1;rounded=0;" edge="1" parent="1">
          <mxGeometry width="50" height="50" relative="1" as="geometry">
            <mxPoint x="-720" y="-40" as="sourcePoint" />
            <mxPoint x="-640" y="-280" as="targetPoint" />
          </mxGeometry>
        </mxCell>
        <mxCell id="rS5YzvvpMupWirfGaCEM-7" value="" style="endArrow=baseDash;html=1;rounded=0;endFill=0;startArrow=baseDash;startFill=0;" edge="1" parent="1">
          <mxGeometry width="50" height="50" relative="1" as="geometry">
            <mxPoint x="-600" y="-300" as="sourcePoint" />
            <mxPoint x="-800" y="-300" as="targetPoint" />
          </mxGeometry>
        </mxCell>
        <mxCell id="rS5YzvvpMupWirfGaCEM-8" value="" style="endArrow=classic;html=1;rounded=0;" edge="1" parent="1">
          <mxGeometry width="50" height="50" relative="1" as="geometry">
            <mxPoint x="-600" y="-280" as="sourcePoint" />
            <mxPoint x="-520" y="-40" as="targetPoint" />
          </mxGeometry>
        </mxCell>
      </root>
    </mxGraphModel>
  </diagram>
</mxfile>
